<?xml version="1.0" encoding="UTF-8" standalone="no"?>
<svg
   width="210mm"
   height="297mm"
   baseProfile="tiny-ps"
   viewBox="0 0 210 297"
   version="1.2"
   id="svg1"
   xmlns:inkscape="http://www.inkscape.org/namespaces/inkscape"
   xmlns:sodipodi="http://sodipodi.sourceforge.net/DTD/sodipodi-0.dtd"
   xmlns="http://www.w3.org/2000/svg"
   xmlns:svg="http://www.w3.org/2000/svg"
   xmlns:rdf="http://www.w3.org/1999/02/22-rdf-syntax-ns#"
   xmlns:cc="http://creativecommons.org/ns#"
   xmlns:dc="http://purl.org/dc/elements/1.1/">
  <title>khlybov.ru</title>
   <path d="m31.645 60.323h64.279l0.9889 7.2519s-9.5747 0.43786-22.085 0.32963c-5.9156-0.05118 41.534 69.882 41.534 69.882s16.275-18.336 29.667-41.534c13.392-23.198 7.9112-28.678 7.9112-28.678l-19.778-0.32963-0.32963-6.5927 53.071-0.32963 0.32964 7.2519-15.987-0.82408s-2.5608 12.908-17.965 34.117c-15.404 21.209-33.952 42.523-33.952 42.523l58.675 85.375 14.504-0.32963-0.65926 7.5816-59.993 0.32964-0.65926-7.2519 23.404 0.32964-47.467-73.508s-10.093 12.049-31.849 35.748c-21.756 23.699-17.267 37.101-17.267 37.101l21.756 0.9889-1.3185 6.263-54.39-0.32963-0.32963-6.5927 13.845 0.32964s9.8904-18.923 28.94-39.943 37.975-38.18 37.975-38.18l-58.016-83.727-14.834 0.65927z" color="#000000" color-rendering="auto"  fill="#201818" solid-color="#000000" stop-color="#000000" stroke="#000" />
</svg>
